<svg width="103" height="42" viewBox="0 0 103 42" fill="none" xmlns="http://www.w3.org/2000/svg">
<path fill-rule="evenodd" clip-rule="evenodd" d="M24.64 14.5268L24.64 14.5219C24.1652 14.4093 23.7001 14.2429 23.2644 14.0226C22.4127 13.5967 21.7518 12.9114 21.6245 12.7694C21.1888 12.4855 20.7874 12.1428 20.4301 11.761C19.5391 10.7476 19.2062 9.71961 19.0838 9H16.1466V24.5965C16.1466 24.6102 16.1466 24.6239 16.1467 24.6376C16.1468 25.1712 16.1469 25.6867 15.9655 26.2022C15.6718 27.0491 15.0403 27.8078 14.1983 28.1456C12.9353 28.6498 11.9514 28.596 10.7716 27.8176C10.4779 27.612 10.2233 27.3624 10.0128 27.0784C10.0101 27.077 10.0074 27.0755 10.0047 27.0741C9.45919 26.331 9.34216 25.4666 9.34704 24.807C9.48901 23.5881 9.96875 22.9076 10.8695 22.2076C12.1619 21.2628 13.7724 21.7964 13.7724 21.7964V17.7088C13.3857 17.65 12.9941 17.6256 12.6024 17.6354V20.8124C12.6024 20.8124 10.9919 20.2788 9.69951 21.2236C8.79877 21.9237 8.31903 22.6041 8.17706 23.823C8.17701 23.832 8.17699 23.8411 8.17698 23.8502C8.17698 23.8394 8.177 23.8288 8.17706 23.8181C8.31903 22.5992 8.79877 21.9188 9.69951 21.2187C10.9919 20.2739 12.6024 20.8075 12.6024 20.8075V17.6305C11.7213 17.6451 10.8499 17.8263 10.0373 18.1689C9.2883 18.4578 8.58827 18.8739 7.97146 19.3928C7.27632 19.9949 6.68399 20.7145 6.23362 21.5173C6.06228 21.8111 5.4161 22.9908 5.33778 24.9049C5.29372 25.9868 5.61681 27.1127 5.77346 27.5777V27.5826C5.87137 27.8519 6.2532 28.7918 6.8798 29.5897C7.06093 29.8198 7.25674 30.0401 7.46235 30.2506C7.8246 30.6178 8.22112 30.9506 8.64701 31.2444C10.61 32.571 12.7885 32.4829 12.7885 32.4829C12.8162 32.4818 12.8488 32.4809 12.8858 32.4798C13.3523 32.4666 14.534 32.4331 15.8627 31.8073C17.4537 31.0583 18.3593 29.9422 18.3593 29.9422C18.3693 29.9301 18.3824 29.9146 18.3984 29.8957C18.6028 29.6537 19.2752 28.8577 19.7202 27.6952C20.0874 26.7358 20.2098 25.5854 20.2098 25.1252V16.8521C20.2587 16.8815 20.9147 17.3123 20.9147 17.3123C20.9147 17.3123 21.8595 17.9144 23.333 18.306C24.3904 18.585 25.8149 18.6438 25.8149 18.6438V14.6394C25.5457 14.6688 25.1296 14.6394 24.64 14.5268ZM24.64 17.6598C24.64 17.6598 23.2155 17.6011 22.1581 17.322C20.6846 16.9304 19.7398 16.3283 19.7398 16.3283C19.7398 16.3283 19.0838 15.8975 19.0349 15.8681L19.0349 15.873C19.0887 15.9024 19.7398 16.3332 19.7398 16.3332C19.7398 16.3332 20.6846 16.9353 22.1581 17.327C23.2155 17.606 24.64 17.6647 24.64 17.6647L24.64 17.6598ZM19.0349 24.1412C19.0349 24.1412 19.0349 24.1412 19.0349 24.1412C19.0349 24.1412 19.0349 24.1412 19.0349 24.1412L19.0349 24.1412ZM17.2235 28.9117C17.2075 28.9306 17.1944 28.9462 17.1845 28.9582C17.1944 28.9462 17.2075 28.9307 17.2235 28.9117ZM11.711 31.4958C11.6739 31.4969 11.6413 31.4978 11.6136 31.4989C11.6136 31.4989 9.43516 31.587 7.47214 30.2604C9.43516 31.5919 11.6136 31.4989 11.6136 31.4989C11.6413 31.4978 11.6739 31.4969 11.711 31.4958ZM5 28.9582L5.07833 29.1834C5.06853 29.1589 5.03916 29.0806 5 28.9582ZM19.0887 9.00001C19.2111 9.71962 19.5489 10.7476 20.4349 11.761C20.7874 12.1428 21.1888 12.4855 21.6294 12.7694L21.6049 12.7449C19.9846 10.8896 20.2049 9.00001 20.2049 9.00001H19.0887Z" fill="black" fill-opacity="0.5"/>
<path d="M33.582 13.6841H44.1741L43.1906 16.6006H40.4211V27.7578H37.0185V16.6006H33.582V13.6841ZM61.6617 13.6841V16.6006H65.0982V27.7578H68.5121V16.6006H71.2816L72.2651 13.6841H61.6617ZM46.4801 16.9962C47.3958 16.9962 48.1306 16.2614 48.1306 15.3458C48.1306 14.4302 47.3958 13.6954 46.4801 13.6954C45.5645 13.6954 44.8297 14.4302 44.8297 15.3458C44.8297 16.2614 45.5645 16.9962 46.4801 16.9962ZM44.8297 27.7465H48.1758V18.1606H44.8297V27.7465ZM60.2035 16.9171H56.2922L52.9236 20.2857V13.6841H49.6001L49.5888 27.7352H52.9462V24.0727L53.9862 23.1231L57.2418 27.7352H60.8252L56.1113 20.9979L60.2035 16.9171ZM92.2849 21.0092L96.377 16.9171H92.4657L89.0971 20.2857V13.6841H85.7736L85.751 27.7465H89.1084V24.084L90.1597 23.1344L93.4153 27.7465H96.9987L92.2849 21.0092ZM83.6823 22.0492C83.6823 25.2257 81.0711 27.803 77.8494 27.803C74.6277 27.803 72.0164 25.2257 72.0164 22.0492C72.0164 18.8727 74.6277 16.2954 77.8494 16.2954C81.0711 16.2954 83.6823 18.8727 83.6823 22.0492ZM80.7093 22.0492C80.7093 20.4666 79.432 19.1892 77.8494 19.1892C76.2668 19.1892 74.9894 20.4666 74.9894 22.0492C74.9894 23.6318 76.2668 24.9092 77.8494 24.9092C79.432 24.9092 80.7093 23.6318 80.7093 22.0492Z" fill="black" fill-opacity="0.5"/>
</svg>
