<svg width="109" height="89" viewBox="0 0 109 89" fill="none" xmlns="http://www.w3.org/2000/svg">
<path d="M6.07807 89C2.02602 74.1667 0 60.9226 0 49.2679C0 33.6399 3.91698 21.5878 11.7509 13.1116C19.5849 4.37054 30.9306 0 45.7881 0V18.6741C38.7646 18.6741 33.632 20.6607 30.3903 24.6339C27.4188 28.3422 25.9331 34.1696 25.9331 42.1161V50.4598H47.8141V89H6.07807ZM67.2639 89C63.482 75.2262 61.5911 61.9821 61.5911 49.2679C61.5911 33.6399 65.373 21.5878 72.9368 13.1116C80.7708 4.37054 92.1165 0 106.974 0V18.6741C93.7373 18.6741 87.1189 26.4881 87.1189 42.1161V50.4598H109V89H67.2639Z" fill="url(#paint0_linear)"/>
<defs>
<linearGradient id="paint0_linear" x1="-55.045" y1="45.39" x2="34.0768" y2="153.469" gradientUnits="userSpaceOnUse">
<stop stop-color="#00EAF8"/>
<stop offset="1" stop-color="#6D42EF"/>
</linearGradient>
</defs>
</svg>
