<svg width="143" height="136" viewBox="0 0 143 136" fill="none" xmlns="http://www.w3.org/2000/svg">
<g clip-path="url(#clip0_1087_1153)">
<path d="M86.5543 7.63059L12.0527 23.5996L34.1393 126.431L108.641 110.462L86.5543 7.63059Z" fill="#E0E0E0"/>
<g opacity="0.5">
<path opacity="0.5" d="M85.6672 9.63905L13.6836 25.0684L35.0236 124.424L107.007 108.995L85.6672 9.63905Z" fill="url(#paint0_linear_1087_1153)"/>
</g>
<path d="M84.9088 10.5651L14.7578 25.6016L35.6263 122.762L105.777 107.726L84.9088 10.5651Z" fill="#FAFAFA"/>
<path d="M66.4202 10.1226L31.6191 17.582L33.4279 26.0035L68.229 18.5441L66.4202 10.1226Z" fill="url(#paint1_linear_1087_1153)"/>
<path d="M47.2529 5.62683C44.5661 6.20336 42.8661 8.8979 43.4572 11.6447C44.0482 14.3915 46.7037 16.1542 49.3853 15.5776C52.0669 15.0011 53.7721 12.3066 53.181 9.55977C52.59 6.81298 49.9397 5.0503 47.2529 5.62683ZM48.9389 13.4823C48.3711 13.6176 47.7758 13.5809 47.2289 13.3769C46.682 13.1729 46.2082 12.8109 45.868 12.337C45.5279 11.8631 45.3366 11.2987 45.3187 10.7158C45.3008 10.1329 45.4571 9.55782 45.7675 9.06395C46.078 8.57008 46.5286 8.17974 47.062 7.94267C47.5954 7.70561 48.1873 7.63255 48.7624 7.73282C49.3375 7.83308 49.8697 8.10213 50.2911 8.50567C50.7126 8.90921 51.0042 9.42897 51.1289 9.9987C51.215 10.3711 51.2266 10.7569 51.163 11.1338C51.0995 11.5107 50.962 11.8714 50.7585 12.1951C50.555 12.5188 50.2895 12.7991 49.9773 13.02C49.665 13.2409 49.3121 13.398 48.9389 13.4823Z" fill="url(#paint2_linear_1087_1153)"/>
<path d="M65.9762 9.84029L31.9082 17.1426L33.6372 25.1928L67.7052 17.8905L65.9762 9.84029Z" fill="#D6D6D6"/>
<path d="M47.2521 5.62786C46.3104 5.82977 45.4498 6.30609 44.7791 6.9966C44.1084 7.68711 43.6578 8.56078 43.4841 9.50716C43.3105 10.4535 43.4216 11.4301 43.8035 12.3134C44.1854 13.1966 44.8209 13.9469 45.6297 14.4694C46.4384 14.9919 47.3841 15.263 48.3471 15.2486C49.3101 15.2341 50.2472 14.9348 51.0399 14.3883C51.8326 13.8418 52.4453 13.0728 52.8005 12.1785C53.1557 11.2842 53.2375 10.3047 53.0355 9.36398C52.9014 8.73929 52.6454 8.14711 52.2821 7.62126C51.9189 7.09542 51.4555 6.6462 50.9184 6.29926C50.3814 5.95233 49.7812 5.71447 49.1521 5.59927C48.5231 5.48407 47.8774 5.49378 47.2521 5.62786ZM48.8632 13.1349C48.3196 13.2514 47.7537 13.2043 47.237 12.9995C46.7203 12.7947 46.2759 12.4414 45.9602 11.9843C45.6445 11.5273 45.4715 10.9869 45.4632 10.4316C45.4549 9.87634 45.6116 9.33107 45.9135 8.86476C46.2155 8.39846 46.649 8.03207 47.1594 7.81193C47.6698 7.5918 48.234 7.5278 48.7808 7.62803C49.3276 7.72826 49.8323 7.98823 50.2312 8.37504C50.6301 8.76186 50.9052 9.25816 51.0217 9.80117C51.1779 10.5292 51.0383 11.2894 50.6335 11.9146C50.2287 12.5398 49.5919 12.9787 48.8632 13.1349Z" fill="#D6D6D6"/>
<path d="M121.162 20.3633H44.9648V125.535H121.162V20.3633Z" fill="#E0E0E0"/>
<g opacity="0.5">
<path opacity="0.5" d="M119.876 22.1426H46.2539V123.76H119.876V22.1426Z" fill="url(#paint3_linear_1087_1153)"/>
</g>
<path d="M118.937 22.8906H47.1895V122.263H118.937V22.8906Z" fill="white"/>
<path d="M100.954 18.582H65.3613V27.1951H100.954V18.582Z" fill="url(#paint4_linear_1087_1153)"/>
<path d="M83.1578 10.1738C80.4099 10.1738 78.1816 12.4521 78.1816 15.2633C78.1816 18.0746 80.4099 20.3528 83.1578 20.3528C85.9056 20.3528 88.1339 18.0746 88.1339 15.2633C88.1339 12.4521 85.9056 10.1738 83.1578 10.1738ZM83.1578 18.2C82.5736 18.2138 81.9985 18.0534 81.506 17.7393C81.0135 17.4251 80.6259 16.9715 80.3927 16.4362C80.1595 15.901 80.0912 15.3085 80.1966 14.7343C80.3021 14.1601 80.5764 13.6304 80.9846 13.2127C81.3928 12.795 81.9163 12.5083 82.4884 12.3892C83.0605 12.2702 83.655 12.3241 84.1963 12.5442C84.7375 12.7643 85.2008 13.1405 85.527 13.6248C85.8532 14.1091 86.0275 14.6796 86.0277 15.2633C86.0333 16.0305 85.7345 16.7687 85.1966 17.3165C84.6588 17.8642 83.9257 18.1768 83.1578 18.186V18.2Z" fill="url(#paint5_linear_1087_1153)"/>
<path d="M100.58 18.2109H65.7363V26.4443H100.58V18.2109Z" fill="#D6D6D6"/>
<path d="M83.1569 10.1738C82.1937 10.1738 81.2522 10.4591 80.4514 10.9937C79.6506 11.5282 79.0264 12.288 78.6578 13.1769C78.2892 14.0659 78.1928 15.044 78.3807 15.9877C78.5686 16.9314 79.0324 17.7982 79.7134 18.4786C80.3945 19.1589 81.2622 19.6222 82.2068 19.8099C83.1515 19.9977 84.1306 19.9013 85.0205 19.5331C85.9103 19.1649 86.6709 18.5414 87.206 17.7414C87.7411 16.9414 88.0267 16.0008 88.0267 15.0386C88.0267 13.7484 87.5136 12.511 86.6004 11.5987C85.6871 10.6864 84.4484 10.1738 83.1569 10.1738ZM83.1569 17.8464C82.6014 17.8457 82.0587 17.6806 81.5971 17.372C81.1355 17.0633 80.7758 16.625 80.5634 16.1123C80.351 15.5996 80.2954 15.0355 80.4037 14.4913C80.512 13.9471 80.7792 13.4471 81.1717 13.0545C81.5643 12.6619 82.0644 12.3943 82.6091 12.2854C83.1537 12.1766 83.7185 12.2314 84.2319 12.4429C84.7454 12.6545 85.1847 13.0133 85.4942 13.474C85.8037 13.9348 85.9696 14.4768 85.971 15.0317C85.9708 15.4005 85.8978 15.7657 85.7562 16.1064C85.6147 16.4471 85.4073 16.7566 85.1459 17.0171C84.8846 17.2777 84.5744 17.4843 84.2331 17.6251C83.8919 17.7659 83.5261 17.8381 83.1569 17.8377V17.8464Z" fill="#D6D6D6"/>
<g opacity="0.5">
<path opacity="0.5" d="M3.31769 128.377H2.66211V132.092H3.31769V128.377Z" fill="#47E6B1"/>
<path opacity="0.5" d="M4.84961 130.563V129.908H1.1306V130.563H4.84961Z" fill="#47E6B1"/>
</g>
<g opacity="0.5">
<path opacity="0.5" d="M79.3763 0H78.7207V3.71522H79.3763V0Z" fill="#47E6B1"/>
<path opacity="0.5" d="M80.9082 2.1842V1.5293L77.1892 1.5293V2.1842H80.9082Z" fill="#47E6B1"/>
</g>
<path opacity="0.5" d="M134.443 134.564C134.262 134.485 134.116 134.343 134.033 134.164C133.951 133.985 133.937 133.782 133.994 133.594C134.004 133.565 134.01 133.535 134.012 133.505C134.017 133.418 133.994 133.333 133.947 133.26C133.9 133.188 133.83 133.133 133.749 133.103C133.668 133.073 133.579 133.07 133.496 133.094C133.413 133.119 133.34 133.169 133.288 133.238C133.27 133.262 133.255 133.289 133.243 133.317C133.164 133.497 133.022 133.643 132.843 133.725C132.664 133.808 132.46 133.822 132.272 133.764C132.243 133.755 132.213 133.749 132.183 133.747C132.096 133.742 132.011 133.764 131.938 133.812C131.866 133.859 131.811 133.928 131.781 134.009C131.751 134.09 131.748 134.179 131.772 134.262C131.797 134.345 131.847 134.418 131.916 134.47C131.94 134.488 131.967 134.503 131.995 134.515C132.175 134.594 132.321 134.736 132.404 134.915C132.486 135.094 132.5 135.297 132.443 135.485C132.433 135.514 132.428 135.544 132.425 135.574C132.42 135.66 132.443 135.746 132.49 135.818C132.537 135.891 132.607 135.946 132.688 135.976C132.769 136.006 132.858 136.009 132.941 135.984C133.024 135.96 133.097 135.909 133.149 135.84C133.167 135.816 133.182 135.79 133.194 135.762C133.273 135.581 133.415 135.436 133.594 135.353C133.773 135.271 133.977 135.257 134.165 135.314C134.194 135.324 134.224 135.329 134.254 135.332C134.341 135.337 134.426 135.314 134.499 135.267C134.571 135.22 134.626 135.15 134.656 135.069C134.686 134.988 134.689 134.9 134.665 134.817C134.64 134.734 134.59 134.661 134.521 134.609C134.497 134.591 134.47 134.576 134.443 134.564Z" fill="#4D8AF0"/>
<path opacity="0.5" d="M23.8292 98.8469C23.6484 98.7683 23.5028 98.6259 23.4202 98.4471C23.3376 98.2682 23.3237 98.0652 23.3811 97.8767C23.3904 97.8479 23.3962 97.8181 23.3986 97.7879C23.4038 97.7016 23.381 97.616 23.3337 97.5436C23.2864 97.4713 23.217 97.4161 23.1358 97.3862C23.0547 97.3563 22.966 97.3533 22.883 97.3776C22.8 97.402 22.7271 97.4524 22.675 97.5214C22.6569 97.5456 22.6416 97.572 22.6296 97.5998C22.5509 97.7804 22.4085 97.9258 22.2294 98.0084C22.0503 98.0909 21.8471 98.1048 21.6585 98.0474C21.6296 98.0381 21.5998 98.0323 21.5696 98.03C21.4832 98.0248 21.3975 98.0475 21.3251 98.0948C21.2526 98.142 21.1974 98.2113 21.1674 98.2924C21.1375 98.3735 21.1345 98.4621 21.1589 98.545C21.1833 98.6279 21.2337 98.7008 21.3028 98.7528C21.3271 98.7709 21.3534 98.7861 21.3813 98.7981C21.5621 98.8767 21.7077 99.019 21.7903 99.1979C21.8729 99.3768 21.8868 99.5798 21.8294 99.7683C21.8201 99.7971 21.8142 99.8269 21.8119 99.8571C21.8067 99.9434 21.8295 100.029 21.8768 100.101C21.9241 100.174 21.9935 100.229 22.0746 100.259C22.1558 100.289 22.2444 100.292 22.3275 100.267C22.4105 100.243 22.4834 100.193 22.5355 100.124C22.5536 100.099 22.5688 100.073 22.5808 100.045C22.6595 99.8646 22.802 99.7192 22.9811 99.6366C23.1601 99.5541 23.3633 99.5402 23.552 99.5976C23.5808 99.6069 23.6107 99.6127 23.6409 99.615C23.7273 99.6202 23.813 99.5975 23.8854 99.5502C23.9578 99.503 24.0131 99.4336 24.043 99.3526C24.073 99.2715 24.076 99.1829 24.0516 99.1C24.0272 99.0171 23.9767 98.9442 23.9077 98.8922C23.8834 98.8741 23.8571 98.8589 23.8292 98.8469Z" fill="#FDD835"/>
<path opacity="0.5" d="M115.96 11.8762C115.779 11.7975 115.634 11.6552 115.551 11.4763C115.468 11.2975 115.455 11.0945 115.512 10.906C115.521 10.8772 115.527 10.8474 115.529 10.8172C115.535 10.7309 115.512 10.6453 115.465 10.5729C115.417 10.5006 115.348 10.4454 115.267 10.4155C115.186 10.3856 115.097 10.3826 115.014 10.4069C114.931 10.4313 114.858 10.4817 114.806 10.5507C114.788 10.5749 114.772 10.6013 114.76 10.6291C114.682 10.8097 114.539 10.9551 114.36 11.0377C114.181 11.1202 113.978 11.1341 113.789 11.0767C113.76 11.0674 113.731 11.0616 113.7 11.0593C113.614 11.0541 113.528 11.0768 113.456 11.1241C113.383 11.1713 113.328 11.2406 113.298 11.3217C113.268 11.4028 113.265 11.4914 113.29 11.5743C113.314 11.6572 113.365 11.7301 113.434 11.7821C113.458 11.8002 113.484 11.8154 113.512 11.8274C113.693 11.906 113.839 12.0483 113.921 12.2272C114.004 12.4061 114.018 12.6091 113.96 12.7976C113.951 12.8264 113.945 12.8562 113.943 12.8864C113.938 12.9727 113.96 13.0583 114.008 13.1307C114.055 13.203 114.124 13.2582 114.205 13.2881C114.287 13.318 114.375 13.321 114.458 13.2966C114.541 13.2723 114.614 13.2219 114.666 13.1529C114.684 13.1286 114.7 13.1023 114.712 13.0745C114.79 12.8939 114.933 12.7485 115.112 12.6659C115.291 12.5834 115.494 12.5695 115.683 12.6269C115.712 12.6361 115.742 12.642 115.772 12.6443C115.858 12.6495 115.944 12.6268 116.016 12.5795C116.089 12.5322 116.144 12.4629 116.174 12.3819C116.204 12.3008 116.207 12.2122 116.182 12.1293C116.158 12.0464 116.108 11.9735 116.039 11.9215C116.014 11.9033 115.988 11.8881 115.96 11.8762Z" fill="#FDD835"/>
<path opacity="0.5" d="M141.69 56.086C142.415 56.086 143.003 55.4988 143.003 54.7745C143.003 54.0501 142.415 53.4629 141.69 53.4629C140.965 53.4629 140.377 54.0501 140.377 54.7745C140.377 55.4988 140.965 56.086 141.69 56.086Z" fill="#F55F44"/>
<path opacity="0.5" d="M40.2289 131.361C40.954 131.361 41.5418 130.774 41.5418 130.05C41.5418 129.325 40.954 128.738 40.2289 128.738C39.5038 128.738 38.916 129.325 38.916 130.05C38.916 130.774 39.5038 131.361 40.2289 131.361Z" fill="#F55F44"/>
<path opacity="0.5" d="M128.205 84.4356C128.931 84.4356 129.518 83.8484 129.518 83.1241C129.518 82.3997 128.931 81.8125 128.205 81.8125C127.48 81.8125 126.893 82.3997 126.893 83.1241C126.893 83.8484 127.48 84.4356 128.205 84.4356Z" fill="#F55F44"/>
<path opacity="0.5" d="M15.1938 18.0938C15.9189 18.0938 16.5067 17.5066 16.5067 16.7823C16.5067 16.0579 15.9189 15.4707 15.1938 15.4707C14.4687 15.4707 13.8809 16.0579 13.8809 16.7823C13.8809 17.5066 14.4687 18.0938 15.1938 18.0938Z" fill="#4D8AF0"/>
<path opacity="0.5" d="M1.3129 53.8712C2.038 53.8712 2.6258 53.284 2.6258 52.5596C2.6258 51.8353 2.038 51.248 1.3129 51.248C0.587806 51.248 0 51.8353 0 52.5596C0 53.284 0.587806 53.8712 1.3129 53.8712Z" fill="#47E6B1"/>
</g>
<defs>
<linearGradient id="paint0_linear_1087_1153" x1="71.0145" y1="116.71" x2="49.7162" y2="17.345" gradientUnits="userSpaceOnUse">
<stop stop-color="#808080" stop-opacity="0.25"/>
<stop offset="0.54" stop-color="#808080" stop-opacity="0.12"/>
<stop offset="1" stop-color="#808080" stop-opacity="0.1"/>
</linearGradient>
<linearGradient id="paint1_linear_1087_1153" x1="19145.4" y1="-2490.56" x2="19056.2" y2="-2907.03" gradientUnits="userSpaceOnUse">
<stop stop-color="#808080" stop-opacity="0.25"/>
<stop offset="0.54" stop-color="#808080" stop-opacity="0.12"/>
<stop offset="1" stop-color="#808080" stop-opacity="0.1"/>
</linearGradient>
<linearGradient id="paint2_linear_1087_1153" x1="5590.51" y1="284.078" x2="5465.98" y2="-296.944" gradientUnits="userSpaceOnUse">
<stop stop-color="#808080" stop-opacity="0.25"/>
<stop offset="0.54" stop-color="#808080" stop-opacity="0.12"/>
<stop offset="1" stop-color="#808080" stop-opacity="0.1"/>
</linearGradient>
<linearGradient id="paint3_linear_1087_1153" x1="35119.7" y1="72224.2" x2="35119.7" y2="12939.7" gradientUnits="userSpaceOnUse">
<stop stop-color="#808080" stop-opacity="0.25"/>
<stop offset="0.54" stop-color="#808080" stop-opacity="0.12"/>
<stop offset="1" stop-color="#808080" stop-opacity="0.1"/>
</linearGradient>
<linearGradient id="paint4_linear_1087_1153" x1="17041.1" y1="1363.35" x2="17041.1" y2="937.429" gradientUnits="userSpaceOnUse">
<stop stop-color="#808080" stop-opacity="0.25"/>
<stop offset="0.54" stop-color="#808080" stop-opacity="0.12"/>
<stop offset="1" stop-color="#808080" stop-opacity="0.1"/>
</linearGradient>
<linearGradient id="paint5_linear_1087_1153" x1="6714.95" y1="1805.64" x2="6714.95" y2="1210.78" gradientUnits="userSpaceOnUse">
<stop stop-color="#808080" stop-opacity="0.25"/>
<stop offset="0.54" stop-color="#808080" stop-opacity="0.12"/>
<stop offset="1" stop-color="#808080" stop-opacity="0.1"/>
</linearGradient>
<clipPath id="clip0_1087_1153">
<rect width="143" height="136" fill="white"/>
</clipPath>
</defs>
</svg>
