<svg width="21" height="21" viewBox="0 0 21 21" fill="none" xmlns="http://www.w3.org/2000/svg">
<path d="M14.744 0H6.25601C2.80643 0 0 2.80643 0 6.25601V14.744C0 18.1936 2.80643 21 6.25601 21H14.744C18.1936 21 21 18.1936 21 14.744V6.25601C21 2.80643 18.1935 0 14.744 0ZM18.8874 14.744C18.8874 17.0323 17.0323 18.8874 14.744 18.8874H6.25601C3.96769 18.8874 2.1126 17.0323 2.1126 14.744V6.25601C2.1126 3.96765 3.96769 2.1126 6.25601 2.1126H14.744C17.0323 2.1126 18.8874 3.96765 18.8874 6.25601V14.744Z" fill="url(#paint0_linear)"/>
<path d="M10.4978 5.06836C7.5029 5.06836 5.06641 7.50486 5.06641 10.4997C5.06641 13.4945 7.5029 15.931 10.4978 15.931C13.4926 15.931 15.9291 13.4945 15.9291 10.4997C15.9291 7.50482 13.4926 5.06836 10.4978 5.06836ZM10.4978 13.8185C8.66484 13.8185 7.17901 12.3326 7.17901 10.4997C7.17901 8.6668 8.66488 7.18096 10.4978 7.18096C12.3307 7.18096 13.8165 8.6668 13.8165 10.4997C13.8165 12.3326 12.3306 13.8185 10.4978 13.8185Z" fill="url(#paint1_linear)"/>
<path d="M15.9421 6.41054C16.6609 6.41054 17.2435 5.82786 17.2435 5.10908C17.2435 4.3903 16.6609 3.80762 15.9421 3.80762C15.2233 3.80762 14.6406 4.3903 14.6406 5.10908C14.6406 5.82786 15.2233 6.41054 15.9421 6.41054Z" fill="url(#paint2_linear)"/>
<defs>
<linearGradient id="paint0_linear" x1="0" y1="10.5" x2="21" y2="10.5" gradientUnits="userSpaceOnUse">
<stop stop-color="#FF512F"/>
<stop offset="1" stop-color="#DD2476"/>
</linearGradient>
<linearGradient id="paint1_linear" x1="5.06641" y1="10.4997" x2="15.9291" y2="10.4997" gradientUnits="userSpaceOnUse">
<stop stop-color="#FF512F"/>
<stop offset="1" stop-color="#DD2476"/>
</linearGradient>
<linearGradient id="paint2_linear" x1="14.6406" y1="5.10908" x2="17.2435" y2="5.10908" gradientUnits="userSpaceOnUse">
<stop stop-color="#FF512F"/>
<stop offset="1" stop-color="#DD2476"/>
</linearGradient>
</defs>
</svg>
