<?xml version="1.0" encoding="UTF-8"?>
<svg width="145px" height="21px" viewBox="0 0 145 21" version="1.1" xmlns="http://www.w3.org/2000/svg" xmlns:xlink="http://www.w3.org/1999/xlink">
    <!-- Generator: Sketch 57.1 (83088) - https://sketch.com -->
    <title>Group 20</title>
    <desc>Created with Sketch.</desc>
    <defs>
        <polygon id="path-1" points="0 21 144.174 21 144.174 0.136 0 0.136"></polygon>
        <path d="M14.851,0.136 C11.637,0.191 9.04,2.821 9.04,6.048 L9.04,6.048 L9.04,15.089 C9.04,16.813 7.637,18.218 5.911,18.218 L5.911,18.218 C4.187,18.218 2.782,16.813 2.782,15.089 L2.782,15.089 C2.782,13.386 4.148,11.998 5.842,11.959 L5.842,11.959 L5.842,9.179 C2.646,9.215 0.055,11.795 0,14.986 L0,14.986 L0,15.191 C0.055,18.404 2.685,21 5.911,21 L5.911,21 C9.171,21 11.822,18.349 11.822,15.089 L11.822,15.089 L11.822,6.048 C11.822,4.323 13.228,2.918 14.953,2.918 L14.953,2.918 C16.677,2.918 18.082,4.323 18.082,6.048 L18.082,6.048 C18.082,7.75 16.717,9.139 15.022,9.177 L15.022,9.177 L15.022,11.956 C18.251,11.92 20.864,9.286 20.864,6.048 L20.864,6.048 C20.864,2.821 18.268,0.191 15.055,0.136 L15.055,0.136 L14.851,0.136 Z" id="path-3"></path>
        <radialGradient cx="49.9997038%" cy="50.0002962%" fx="49.9997038%" fy="50.0002962%" r="49.9997038%" id="radialGradient-5">
            <stop stop-color="#1CC1DA" offset="0%"></stop>
            <stop stop-color="#4B83DA" offset="100%"></stop>
        </radialGradient>
    </defs>
    <g id="Page-1" stroke="none" stroke-width="1" fill="none" fill-rule="evenodd">
        <g id="Mobile" transform="translate(-20.000000, -40.000000)">
            <g id="Group-20" transform="translate(20.000000, 39.000000)">
                <g id="Group-16" transform="translate(0.000000, 0.863900)">
                    <path d="M31.9107,16.1699 L32.7397,14.3099 C33.7707,15.1389 35.4097,15.7279 36.9937,15.7279 C39.0017,15.7279 39.8477,15.0099 39.8477,14.0519 C39.8477,11.2709 32.1867,13.0939 32.1867,8.3059 C32.1867,6.2249 33.8447,4.4559 37.3807,4.4559 C38.9287,4.4559 40.5487,4.8609 41.6727,5.5979 L40.9167,7.4579 C39.7567,6.7759 38.4857,6.4449 37.3617,6.4449 C35.3737,6.4449 34.5627,7.2189 34.5627,8.1949 C34.5627,10.9399 42.2057,9.1519 42.2057,13.8859 C42.2057,15.9479 40.5297,17.7169 36.9937,17.7169 C34.9867,17.7169 32.9787,17.0909 31.9107,16.1699" id="Fill-1" fill="#3F3D56"></path>
                    <path d="M51.7095,12.6152 C51.7095,10.7362 50.4575,9.5392 48.7815,9.5392 C47.1235,9.5392 45.8715,10.7362 45.8715,12.6152 C45.8715,14.4932 47.1235,15.6902 48.7815,15.6902 C50.4575,15.6902 51.7095,14.4932 51.7095,12.6152 M43.5515,12.6152 C43.5515,9.6682 45.7615,7.5872 48.7815,7.5872 C51.8385,7.5872 54.0305,9.6682 54.0305,12.6152 C54.0305,15.5612 51.8385,17.6612 48.7815,17.6612 C45.7615,17.6612 43.5515,15.5612 43.5515,12.6152" id="Fill-3" fill="#3F3D56"></path>
                    <path d="M55.4321,12.6152 C55.4321,9.6682 57.6421,7.5872 60.7541,7.5872 C62.6691,7.5872 64.1991,8.3792 64.9531,9.8712 L63.1851,10.9022 C62.5961,9.9632 61.7121,9.5392 60.7361,9.5392 C59.0411,9.5392 57.7521,10.7182 57.7521,12.6152 C57.7521,14.5302 59.0411,15.6902 60.7361,15.6902 C61.7121,15.6902 62.5961,15.2672 63.1851,14.3282 L64.9531,15.3592 C64.1991,16.8332 62.6691,17.6612 60.7541,17.6612 C57.6421,17.6612 55.4321,15.5612 55.4321,12.6152" id="Fill-5" fill="#3F3D56"></path>
                    <mask id="mask-2" fill="white">
                        <use xlink:href="#path-1"></use>
                    </mask>
                    <g id="Clip-8"></g>
                    <path d="M66.943,17.532 L69.246,17.532 L69.246,7.697 L66.943,7.697 L66.943,17.532 Z M66.63,4.695 C66.63,3.922 67.256,3.314 68.104,3.314 C68.951,3.314 69.577,3.885 69.577,4.641 C69.577,5.451 68.969,6.077 68.104,6.077 C67.256,6.077 66.63,5.469 66.63,4.695 L66.63,4.695 Z" id="Fill-7" fill="#3F3D56" mask="url(#mask-2)"></path>
                    <path d="M78.1968,14.457 L78.1968,13.314 L75.8208,13.314 C74.2558,13.314 73.8328,13.904 73.8328,14.622 C73.8328,15.451 74.5318,15.985 75.7108,15.985 C76.8348,15.985 77.8098,15.47 78.1968,14.457 M80.4998,11.768 L80.4998,17.532 L78.3258,17.532 L78.3258,16.335 C77.7728,17.183 76.7058,17.661 75.2318,17.661 C72.9848,17.661 71.5668,16.428 71.5668,14.715 C71.5668,13.075 72.6718,11.786 75.6558,11.786 L78.1968,11.786 L78.1968,11.639 C78.1968,10.295 77.3858,9.503 75.7478,9.503 C74.6418,9.503 73.5008,9.871 72.7638,10.478 L71.8618,8.803 C72.9118,7.992 74.4398,7.587 76.0238,7.587 C78.8598,7.587 80.4998,8.932 80.4998,11.768" id="Fill-9" fill="#3F3D56" mask="url(#mask-2)"></path>
                    <polygon id="Fill-10" fill="#3F3D56" mask="url(#mask-2)" points="83.447 17.532 85.75 17.532 85.75 3.867 83.447 3.867"></polygon>
                    <path d="M102.4546,9.2266 C102.4546,7.6056 101.3676,6.6656 99.2676,6.6656 L96.4696,6.6656 L96.4696,11.7866 L99.2676,11.7866 C101.3676,11.7866 102.4546,10.8466 102.4546,9.2266 M104.8666,9.2266 C104.8666,12.0626 102.7666,13.8126 99.3786,13.8126 L96.4696,13.8126 L96.4696,17.5326 L94.0746,17.5326 L94.0746,4.6406 L99.3786,4.6406 C102.7666,4.6406 104.8666,6.3716 104.8666,9.2266" id="Fill-11" fill="#3F3D56" mask="url(#mask-2)"></path>
                    <path d="M112.6411,7.5869 L112.6411,9.7779 C112.4391,9.7419 112.2731,9.7239 112.1071,9.7239 C110.3571,9.7239 109.2521,10.7549 109.2521,12.7629 L109.2521,17.5319 L106.9501,17.5319 L106.9501,7.6969 L109.1421,7.6969 L109.1421,9.1339 C109.8051,8.1029 111.0021,7.5869 112.6411,7.5869" id="Fill-12" fill="#3F3D56" mask="url(#mask-2)"></path>
                    <path d="M121.8501,12.6152 C121.8501,10.7362 120.5981,9.5392 118.9221,9.5392 C117.2641,9.5392 116.0121,10.7362 116.0121,12.6152 C116.0121,14.4932 117.2641,15.6902 118.9221,15.6902 C120.5981,15.6902 121.8501,14.4932 121.8501,12.6152 M113.6921,12.6152 C113.6921,9.6682 115.9021,7.5872 118.9221,7.5872 C121.9791,7.5872 124.1711,9.6682 124.1711,12.6152 C124.1711,15.5612 121.9791,17.6612 118.9221,17.6612 C115.9021,17.6612 113.6921,15.5612 113.6921,12.6152" id="Fill-13" fill="#3F3D56" mask="url(#mask-2)"></path>
                    <path d="M133.73,12.6152 C133.73,10.7362 132.478,9.5392 130.802,9.5392 C129.144,9.5392 127.892,10.7362 127.892,12.6152 C127.892,14.4932 129.144,15.6902 130.802,15.6902 C132.478,15.6902 133.73,14.4932 133.73,12.6152 M125.572,12.6152 C125.572,9.6682 127.782,7.5872 130.802,7.5872 C133.859,7.5872 136.051,9.6682 136.051,12.6152 C136.051,15.5612 133.859,17.6612 130.802,17.6612 C127.782,17.6612 125.572,15.5612 125.572,12.6152" id="Fill-14" fill="#3F3D56" mask="url(#mask-2)"></path>
                    <path d="M140.8042,7.1816 L140.8042,7.7716 L143.5112,7.7716 L143.5112,9.6136 L140.8772,9.6136 L140.8772,17.5326 L138.5752,17.5326 L138.5752,9.6136 L136.9542,9.6136 L136.9542,7.7716 L138.5752,7.7716 L138.5752,7.1456 C138.5752,5.0816 139.8102,3.7386 142.0932,3.7386 C142.8852,3.7386 143.6582,3.9036 144.1742,4.2726 L143.5302,6.0026 C143.1802,5.7636 142.7382,5.5976 142.2592,5.5976 C141.3012,5.5976 140.8042,6.1316 140.8042,7.1816" id="Fill-15" fill="#3F3D56" mask="url(#mask-2)"></path>
                </g>
                <g id="Group-19" transform="translate(0.000000, 0.863900)">
                    <mask id="mask-4" fill="white">
                        <use xlink:href="#path-3"></use>
                    </mask>
                    <g id="Clip-18"></g>
                    <path d="M14.851,0.136 C11.637,0.191 9.04,2.821 9.04,6.048 L9.04,6.048 L9.04,15.089 C9.04,16.813 7.637,18.218 5.911,18.218 L5.911,18.218 C4.187,18.218 2.782,16.813 2.782,15.089 L2.782,15.089 C2.782,13.386 4.148,11.998 5.842,11.959 L5.842,11.959 L5.842,9.179 C2.646,9.215 0.055,11.795 0,14.986 L0,14.986 L0,15.191 C0.055,18.404 2.685,21 5.911,21 L5.911,21 C9.171,21 11.822,18.349 11.822,15.089 L11.822,15.089 L11.822,6.048 C11.822,4.323 13.228,2.918 14.953,2.918 L14.953,2.918 C16.677,2.918 18.082,4.323 18.082,6.048 L18.082,6.048 C18.082,7.75 16.717,9.139 15.022,9.177 L15.022,9.177 L15.022,11.956 C18.251,11.92 20.864,9.286 20.864,6.048 L20.864,6.048 C20.864,2.821 18.268,0.191 15.055,0.136 L15.055,0.136 L14.851,0.136 Z" id="Fill-17" fill="url(#radialGradient-5)" mask="url(#mask-4)"></path>
                </g>
            </g>
        </g>
    </g>
</svg>