<svg width="246" height="184" viewBox="0 0 246 184" fill="none" xmlns="http://www.w3.org/2000/svg">
<circle cx="37.0578" cy="150.375" r="32.0578" fill="#7024C4"/>
<g filter="url(#filter0_d)">
<rect x="24.9258" y="90.6367" width="181.935" height="64.7664" rx="15" transform="rotate(-0.0140146 24.9258 90.6367)" fill="white"/>
</g>
<path d="M43.7849 103.08L40.9182 108.589L40.9189 111.553L39.2149 111.553L39.2142 108.589L36.3329 103.082L38.2769 103.081L40.0778 106.789L41.8769 103.08L43.7849 103.08ZM48.0057 104.819C48.6537 104.819 49.2337 104.955 49.7458 105.226C50.2658 105.498 50.6739 105.894 50.97 106.414C51.2662 106.926 51.4143 107.53 51.4145 108.226C51.4147 108.922 51.2668 109.526 50.9709 110.038C50.6751 110.55 50.2672 110.946 49.7472 111.226C49.2353 111.499 48.6553 111.635 48.0073 111.635C47.3593 111.635 46.7753 111.499 46.2552 111.227C45.7432 110.947 45.3391 110.551 45.0429 110.04C44.7468 109.528 44.5987 108.924 44.5985 108.228C44.5983 107.532 44.7462 106.928 45.042 106.416C45.3379 105.895 45.7418 105.499 46.2538 105.227C46.7737 104.955 47.3577 104.819 48.0057 104.819ZM48.006 106.283C47.534 106.283 47.1341 106.451 46.8061 106.787C46.4782 107.115 46.3143 107.595 46.3145 108.227C46.3146 108.859 46.4788 109.343 46.8068 109.679C47.1349 110.007 47.535 110.171 48.007 110.171C48.479 110.171 48.8789 110.007 49.2068 109.679C49.5348 109.342 49.6986 108.858 49.6985 108.226C49.6983 107.594 49.5342 107.114 49.2061 106.787C48.8781 106.451 48.478 106.283 48.006 106.283ZM59.2115 104.9L59.2131 111.548L57.5211 111.548L57.5208 110.204C57.3449 110.653 57.0529 111.005 56.645 111.261C56.2451 111.509 55.7811 111.633 55.2531 111.633C54.4851 111.633 53.873 111.381 53.4169 110.877C52.9608 110.374 52.7326 109.67 52.7324 108.766L52.7315 104.902L54.4115 104.901L54.4124 108.573C54.4125 109.101 54.5486 109.513 54.8207 109.809C55.0927 110.097 55.4608 110.241 55.9248 110.241C56.4128 110.241 56.8007 110.085 57.0886 109.773C57.3766 109.461 57.5205 109.012 57.5203 108.428L57.5195 104.9L59.2115 104.9ZM62.6842 106.171C62.9321 105.747 63.26 105.415 63.668 105.175C64.0759 104.927 64.5319 104.803 65.0359 104.803L65.0363 106.615L64.5443 106.615C63.3043 106.615 62.6845 107.191 62.6847 108.343L62.6855 111.547L60.9935 111.548L60.9919 104.9L62.6839 104.899L62.6842 106.171ZM70.7615 104.417L70.7621 106.613L73.7621 106.613L73.7624 107.909L70.7624 107.909L70.7629 110.189L74.1229 110.188L74.1233 111.544L69.0713 111.546L69.0692 103.074L74.1212 103.072L74.1215 104.416L70.7615 104.417ZM78.2203 104.811C78.7803 104.811 79.2603 104.943 79.6604 105.207C80.0605 105.471 80.3446 105.827 80.5127 106.275L80.5123 104.895L82.1923 104.894L82.194 111.542L80.514 111.543L80.5136 110.151C80.3457 110.599 80.0618 110.959 79.6619 111.231C79.2619 111.495 78.782 111.627 78.222 111.627C77.662 111.628 77.1579 111.492 76.7099 111.22C76.2618 110.948 75.9097 110.556 75.6536 110.044C75.4055 109.524 75.2813 108.916 75.2811 108.22C75.281 107.524 75.4048 106.92 75.6527 106.408C75.9086 105.888 76.2605 105.492 76.7084 105.22C77.1563 104.948 77.6603 104.812 78.2203 104.811ZM78.7487 106.287C78.2207 106.287 77.7967 106.46 77.4768 106.804C77.1569 107.148 76.997 107.62 76.9971 108.22C76.9973 108.82 77.1574 109.292 77.4775 109.636C77.7976 109.972 78.2216 110.139 78.7496 110.139C79.2616 110.139 79.6816 109.967 80.0095 109.623C80.3454 109.271 80.5133 108.803 80.5131 108.219C80.513 107.627 80.3449 107.159 80.0088 106.815C79.6807 106.463 79.2607 106.287 78.7487 106.287ZM85.66 106.166C85.9079 105.742 86.2358 105.409 86.6438 105.169C87.0517 104.921 87.5077 104.797 88.0117 104.797L88.0121 106.609L87.5201 106.609C86.2801 106.609 85.6603 107.186 85.6605 108.338L85.6613 111.542L83.9693 111.542L83.9677 104.894L85.6597 104.894L85.66 106.166ZM93.1502 104.796C93.9182 104.796 94.5302 105.047 94.9863 105.551C95.4425 106.055 95.6706 106.763 95.6709 107.675L95.6718 111.539L93.9918 111.54L93.9909 107.868C93.9908 107.34 93.8547 106.932 93.5826 106.644C93.3105 106.348 92.9385 106.2 92.4665 106.2C91.9865 106.2 91.6025 106.356 91.3146 106.668C91.0267 106.98 90.8828 107.428 90.8829 108.012L90.8838 111.54L89.1918 111.541L89.1902 104.893L90.8822 104.892L90.8825 106.224C91.0584 105.776 91.3463 105.428 91.7462 105.18C92.1542 104.924 92.6222 104.796 93.1502 104.796ZM97.2085 102.983C97.2084 102.711 97.3043 102.491 97.4963 102.323C97.6883 102.147 97.9402 102.059 98.2522 102.059C98.5642 102.058 98.8163 102.146 99.0083 102.322C99.2003 102.49 99.2964 102.71 99.2965 102.982C99.2965 103.246 99.2006 103.466 99.0086 103.642C98.8167 103.81 98.5647 103.894 98.2527 103.895C97.9407 103.895 97.6887 103.811 97.4966 103.643C97.3046 103.467 97.2085 103.247 97.2085 102.983ZM99.0929 104.89L99.0946 111.538L97.4026 111.539L97.4009 104.891L99.0929 104.89ZM104.826 104.793C105.594 104.793 106.206 105.045 106.662 105.548C107.118 106.052 107.346 106.76 107.346 107.672L107.347 111.536L105.667 111.537L105.666 107.865C105.666 107.337 105.53 106.929 105.258 106.641C104.986 106.345 104.614 106.197 104.142 106.197C103.662 106.197 103.278 106.353 102.99 106.665C102.702 106.977 102.558 107.425 102.558 108.009L102.559 111.537L100.867 111.538L100.866 104.89L102.558 104.889L102.558 106.221C102.734 105.773 103.022 105.425 103.422 105.177C103.83 104.921 104.298 104.793 104.826 104.793ZM111.68 104.803C112.24 104.803 112.72 104.935 113.12 105.199C113.52 105.463 113.805 105.819 113.973 106.267L113.972 104.887L115.652 104.886L115.654 111.558C115.654 112.174 115.53 112.726 115.282 113.214C115.042 113.71 114.679 114.099 114.191 114.379C113.711 114.659 113.127 114.799 112.439 114.799C111.479 114.799 110.703 114.571 110.111 114.116C109.518 113.66 109.158 113.04 109.03 112.256L110.698 112.255C110.794 112.591 110.978 112.851 111.25 113.035C111.53 113.227 111.886 113.323 112.318 113.323C112.814 113.323 113.214 113.175 113.518 112.879C113.822 112.591 113.974 112.151 113.974 111.559L113.974 110.143C113.806 110.591 113.522 110.951 113.122 111.223C112.722 111.487 112.242 111.619 111.682 111.619C111.122 111.619 110.618 111.484 110.17 111.212C109.722 110.94 109.37 110.548 109.114 110.036C108.865 109.516 108.741 108.908 108.741 108.212C108.741 107.516 108.865 106.912 109.113 106.4C109.369 105.88 109.72 105.484 110.168 105.212C110.616 104.94 111.12 104.803 111.68 104.803ZM112.209 106.279C111.681 106.279 111.257 106.451 110.937 106.795C110.617 107.14 110.457 107.612 110.457 108.212C110.457 108.812 110.617 109.284 110.937 109.627C111.258 109.963 111.682 110.131 112.21 110.131C112.722 110.131 113.142 109.959 113.469 109.615C113.805 109.263 113.973 108.795 113.973 108.211C113.973 107.619 113.805 107.151 113.469 106.807C113.141 106.455 112.721 106.279 112.209 106.279ZM119.72 104.801C120.528 104.801 121.176 105.005 121.664 105.413C122.152 105.821 122.456 106.365 122.576 107.045L120.992 107.045C120.928 106.725 120.784 106.469 120.56 106.277C120.336 106.085 120.044 105.989 119.684 105.989C119.396 105.989 119.172 106.057 119.012 106.193C118.852 106.329 118.772 106.514 118.772 106.746C118.772 106.93 118.836 107.077 118.964 107.189C119.092 107.301 119.252 107.389 119.444 107.453C119.636 107.517 119.912 107.593 120.272 107.681C120.776 107.793 121.184 107.913 121.496 108.041C121.817 108.161 122.089 108.357 122.313 108.629C122.545 108.893 122.661 109.253 122.661 109.709C122.661 110.277 122.437 110.737 121.989 111.089C121.549 111.441 120.953 111.617 120.201 111.617C119.337 111.617 118.645 111.426 118.125 111.042C117.605 110.65 117.289 110.094 117.177 109.374L118.797 109.374C118.837 109.701 118.981 109.961 119.229 110.153C119.477 110.337 119.801 110.429 120.201 110.429C120.489 110.429 120.709 110.361 120.861 110.225C121.013 110.081 121.089 109.897 121.089 109.673C121.089 109.481 121.021 109.325 120.885 109.205C120.757 109.085 120.593 108.993 120.393 108.929C120.201 108.865 119.925 108.789 119.565 108.701C119.069 108.589 118.665 108.478 118.353 108.366C118.049 108.246 117.784 108.058 117.56 107.802C117.344 107.546 117.236 107.194 117.236 106.746C117.236 106.17 117.456 105.702 117.896 105.342C118.336 104.982 118.944 104.801 119.72 104.801Z" fill="black"/>
<path d="M41.901 120.338L38.6989 128.007L37.5469 128.007L40.7971 120.447L36.3571 120.448L36.3568 119.5L41.9008 119.498L41.901 120.338ZM48.8854 120.409L44.5414 120.41L44.5421 123.242C44.742 122.97 45.03 122.754 45.4059 122.594C45.7819 122.433 46.1939 122.353 46.6419 122.353C47.2419 122.353 47.7379 122.481 48.1299 122.737C48.53 122.985 48.8221 123.317 49.0062 123.733C49.1983 124.141 49.2944 124.597 49.2945 125.101C49.2947 125.973 49.0509 126.685 48.563 127.237C48.0752 127.789 47.3593 128.065 46.4153 128.065C45.5673 128.066 44.8752 127.838 44.3391 127.382C43.803 126.918 43.5028 126.298 43.4386 125.522L44.5186 125.522C44.6068 126.018 44.8108 126.406 45.1309 126.686C45.459 126.958 45.871 127.093 46.367 127.093C46.983 127.093 47.447 126.909 47.7589 126.541C48.0708 126.173 48.2267 125.689 48.2265 125.089C48.2264 124.505 48.0663 124.049 47.7462 123.721C47.4261 123.393 46.9741 123.229 46.3901 123.229C45.9741 123.229 45.6101 123.322 45.2981 123.506C44.9862 123.682 44.7502 123.922 44.5903 124.226L43.5343 124.226L43.5331 119.438L48.8851 119.437L48.8854 120.409ZM52.2857 119.424C52.7897 119.424 53.2057 119.588 53.5338 119.916C53.8699 120.235 54.038 120.663 54.0381 121.199C54.0382 121.735 53.8743 122.163 53.5464 122.484C53.2185 122.804 52.7985 122.964 52.2865 122.964C51.7745 122.964 51.3545 122.804 51.0264 122.484C50.6983 122.164 50.5342 121.736 50.5341 121.2C50.534 120.664 50.6979 120.236 51.0258 119.916C51.3537 119.588 51.7737 119.424 52.2857 119.424ZM57.0617 119.531L52.2038 128.004L51.1238 128.004L55.9817 119.531L57.0617 119.531ZM51.3021 121.2C51.3022 121.52 51.3902 121.78 51.5663 121.98C51.7503 122.18 51.9864 122.28 52.2744 122.28C52.5704 122.28 52.8103 122.18 52.9943 121.98C53.1782 121.78 53.2702 121.52 53.2701 121.2C53.27 120.88 53.178 120.62 52.9939 120.42C52.8099 120.22 52.5698 120.12 52.2738 120.12C51.9858 120.12 51.7499 120.22 51.5659 120.42C51.39 120.62 51.302 120.88 51.3021 121.2ZM55.9109 124.571C56.4229 124.571 56.839 124.731 57.159 125.051C57.4871 125.371 57.6512 125.799 57.6514 126.335C57.6515 126.871 57.4876 127.303 57.1597 127.631C56.8398 127.951 56.4238 128.111 55.9118 128.111C55.4078 128.111 54.9878 127.951 54.6517 127.631C54.3236 127.303 54.1595 126.871 54.1594 126.335C54.1592 125.799 54.3231 125.371 54.651 125.051C54.979 124.731 55.3989 124.571 55.9109 124.571ZM54.9274 126.335C54.9274 126.655 55.0155 126.915 55.1916 127.115C55.3756 127.315 55.6156 127.415 55.9116 127.415C56.1996 127.415 56.4316 127.315 56.6076 127.115C56.7915 126.915 56.8834 126.655 56.8834 126.335C56.8833 126.015 56.7912 125.755 56.6072 125.555C56.4311 125.355 56.1991 125.255 55.9111 125.255C55.6151 125.255 55.3751 125.355 55.1912 125.555C55.0152 125.755 54.9273 126.015 54.9274 126.335ZM66.2127 119.456C67.1967 119.456 68.0207 119.7 68.6849 120.188C69.357 120.676 69.8091 121.34 70.0413 122.18L68.8893 122.18C68.6892 121.668 68.3531 121.256 67.881 120.944C67.417 120.632 66.8649 120.476 66.2249 120.476C65.6489 120.477 65.133 120.613 64.677 120.885C64.2211 121.149 63.8612 121.529 63.5973 122.025C63.3414 122.521 63.2136 123.105 63.2137 123.777C63.2139 124.465 63.346 125.061 63.6102 125.565C63.8743 126.061 64.2384 126.445 64.7025 126.717C65.1745 126.981 65.7146 127.113 66.3226 127.112C66.8426 127.112 67.3185 127 67.7505 126.776C68.1824 126.552 68.5343 126.228 68.8062 125.804C69.0861 125.372 69.254 124.868 69.3099 124.292L65.9859 124.293L65.9857 123.477L70.2337 123.475L70.2339 124.483C70.1621 125.156 69.9542 125.764 69.6104 126.308C69.2665 126.852 68.8026 127.284 68.2187 127.604C67.6348 127.924 66.9708 128.084 66.2268 128.084C65.4108 128.085 64.6907 127.905 64.0667 127.545C63.4426 127.177 62.9544 126.669 62.6023 126.021C62.2581 125.365 62.0859 124.617 62.0857 123.777C62.0855 122.937 62.2573 122.193 62.6012 121.545C62.953 120.889 63.4409 120.377 64.0648 120.009C64.6887 119.641 65.4047 119.457 66.2127 119.456ZM73.0473 122.743C73.2632 122.287 73.5791 121.935 73.9951 121.687C74.411 121.43 74.907 121.302 75.483 121.302L75.4833 122.49L75.1473 122.49C74.5313 122.49 74.0273 122.651 73.6354 122.971C73.2435 123.283 73.0476 123.803 73.0478 124.531L73.0486 127.999L71.9566 127.999L71.955 121.411L73.047 121.411L73.0473 122.743ZM79.7904 121.325C80.4224 121.325 80.9865 121.461 81.4825 121.733C81.9866 122.005 82.3787 122.397 82.6588 122.908C82.947 123.42 83.0911 124.02 83.0913 124.708C83.0914 125.396 82.9476 125.996 82.6597 126.508C82.3798 127.013 81.9879 127.401 81.484 127.673C80.9881 127.945 80.4241 128.081 79.7921 128.081C79.1601 128.081 78.5921 127.945 78.088 127.674C77.5919 127.402 77.1998 127.014 76.9117 126.51C76.6236 125.998 76.4794 125.398 76.4793 124.71C76.4791 124.022 76.623 123.422 76.9108 122.91C77.1987 122.398 77.5906 122.006 78.0865 121.734C78.5905 121.461 79.1584 121.325 79.7904 121.325ZM79.7907 122.285C79.3987 122.285 79.0347 122.373 78.6987 122.549C78.3708 122.725 78.1029 122.998 77.8949 123.366C77.695 123.726 77.5951 124.174 77.5953 124.71C77.5954 125.238 77.6955 125.686 77.8956 126.054C78.1037 126.414 78.3718 126.681 78.6998 126.857C79.0358 127.033 79.3999 127.121 79.7919 127.121C80.1839 127.121 80.5438 127.033 80.8718 126.857C81.2078 126.681 81.4757 126.413 81.6756 126.053C81.8835 125.685 81.9874 125.237 81.9873 124.709C81.9871 124.173 81.883 123.725 81.6749 123.365C81.4749 122.997 81.2068 122.725 80.8707 122.549C80.5427 122.373 80.1827 122.285 79.7907 122.285ZM93.8034 121.406L91.909 127.994L90.733 127.994L88.9197 122.631L87.097 127.995L85.909 127.996L84.0354 121.408L85.1394 121.408L86.5448 126.951L88.3674 121.407L89.5074 121.407L91.3448 126.938L92.7594 121.406L93.8034 121.406ZM98.2092 127.033L98.2094 127.993L97.3934 127.993C96.7214 127.993 96.2174 127.833 95.8813 127.513C95.5532 127.193 95.3891 126.657 95.3889 125.905L95.388 122.353L94.404 122.354L94.4038 121.406L95.3878 121.405L95.3874 119.761L96.4914 119.761L96.4918 121.405L98.1958 121.405L98.196 122.353L96.492 122.353L96.4929 125.929C96.493 126.353 96.5691 126.645 96.7211 126.805C96.8812 126.957 97.1532 127.033 97.5372 127.033L98.2092 127.033ZM103.25 121.295C104.018 121.295 104.638 121.543 105.111 122.039C105.583 122.527 105.819 123.235 105.819 124.163L105.82 127.991L104.728 127.991L104.727 124.259C104.727 123.603 104.559 123.099 104.223 122.747C103.887 122.395 103.431 122.219 102.855 122.22C102.255 122.22 101.775 122.416 101.415 122.808C101.055 123.192 100.875 123.756 100.875 124.5L100.876 127.992L99.784 127.992L99.7818 119.112L100.874 119.112L100.875 122.964C101.043 122.428 101.339 122.016 101.762 121.728C102.194 121.44 102.69 121.296 103.25 121.295ZM41.5596 147.007L39.3507 143.551L38.1627 143.551L38.1636 147.007L37.0716 147.008L37.0695 138.548L39.8535 138.547C40.8135 138.547 41.5336 138.779 42.0137 139.242C42.4938 139.698 42.7339 140.306 42.7341 141.066C42.7343 141.754 42.5424 142.31 42.1585 142.734C41.7746 143.15 41.2187 143.411 40.4907 143.515L42.7956 147.006L41.5596 147.007ZM38.1625 142.759L39.7585 142.759C40.9985 142.759 41.6184 142.214 41.6181 141.126C41.6179 140.038 40.9977 139.495 39.7577 139.495L38.1617 139.495L38.1625 142.759ZM47.008 140.333C47.648 140.333 48.1881 140.493 48.6282 140.813C49.0762 141.133 49.3883 141.561 49.5645 142.097L49.5641 140.417L50.6561 140.416L50.6577 147.004L49.5657 147.005L49.5653 145.325C49.3894 145.861 49.0775 146.289 48.6296 146.609C48.1896 146.929 47.6497 147.089 47.0097 147.089C46.4257 147.089 45.9057 146.953 45.4496 146.682C44.9935 146.41 44.6334 146.022 44.3693 145.518C44.1132 145.006 43.985 144.406 43.9849 143.718C43.9847 143.03 44.1125 142.43 44.3684 141.918C44.6323 141.406 44.9922 141.014 45.4481 140.742C45.9041 140.469 46.424 140.333 47.008 140.333ZM47.3203 141.305C46.6483 141.305 46.1083 141.521 45.7004 141.953C45.3005 142.378 45.1007 142.966 45.1009 143.718C45.101 144.47 45.3012 145.062 45.7013 145.493C46.1094 145.917 46.6495 146.129 47.3215 146.129C47.7535 146.129 48.1374 146.029 48.4734 145.829C48.8173 145.629 49.0853 145.349 49.2772 144.989C49.4691 144.621 49.565 144.197 49.5649 143.717C49.5647 143.237 49.4686 142.813 49.2766 142.445C49.0845 142.077 48.8164 141.797 48.4723 141.605C48.1363 141.405 47.7523 141.305 47.3203 141.305ZM55.7814 146.043L55.7816 147.003L54.9656 147.003C54.2936 147.003 53.7896 146.844 53.4535 146.524C53.1254 146.204 52.9613 145.668 52.9611 144.916L52.9602 141.364L51.9762 141.364L51.976 140.416L52.96 140.416L52.9596 138.772L54.0636 138.771L54.064 140.415L55.768 140.415L55.7682 141.363L54.0642 141.363L54.0651 144.939C54.0652 145.363 54.1413 145.655 54.2933 145.815C54.4533 145.967 54.7254 146.043 55.1094 146.043L55.7814 146.043ZM63.4153 143.341C63.4153 143.573 63.3994 143.773 63.3674 143.941L58.0994 143.942C58.1236 144.694 58.3357 145.258 58.7358 145.634C59.1439 146.01 59.64 146.198 60.224 146.198C60.752 146.198 61.1919 146.066 61.5439 145.802C61.9038 145.53 62.1237 145.169 62.2036 144.721L63.3676 144.721C63.2877 145.177 63.1078 145.585 62.8279 145.945C62.556 146.305 62.2001 146.585 61.7601 146.786C61.3202 146.986 60.8242 147.086 60.2722 147.086C59.6402 147.086 59.0802 146.95 58.5921 146.678C58.104 146.406 57.7199 146.019 57.4398 145.515C57.1677 145.003 57.0315 144.403 57.0314 143.715C57.0312 143.027 57.167 142.427 57.4389 141.915C57.7188 141.403 58.1027 141.01 58.5906 140.738C59.0786 140.466 59.6385 140.33 60.2705 140.33C60.9105 140.33 61.4666 140.466 61.9386 140.738C62.4187 141.009 62.7828 141.373 63.0309 141.829C63.287 142.285 63.4151 142.789 63.4153 143.341ZM62.3113 143.413C62.3352 142.925 62.2551 142.517 62.071 142.189C61.8869 141.862 61.6348 141.618 61.3148 141.458C60.9948 141.298 60.6468 141.218 60.2708 141.218C59.6708 141.218 59.1668 141.406 58.7589 141.782C58.351 142.15 58.1311 142.694 58.0993 143.414L62.3113 143.413Z" fill="#999999"/>
<path d="M86.7645 155.388C89.7071 149.99 101.009 139.016 122.676 138.304C149.76 137.414 163.891 138.294 171.542 125.928C179.194 113.561 194.501 108.258 205.984 115.321" stroke="#7024C4"/>
<path d="M122.676 138.525C101.009 139.237 89.7071 150.21 86.7645 155.608L177.438 155.586C189.802 154.185 210.995 142.11 205.984 115.542C194.501 108.479 179.194 113.782 171.542 126.148C163.891 138.515 149.76 137.635 122.676 138.525Z" fill="url(#paint0_linear)"/>
<circle cx="158.888" cy="135.057" r="2.64954" transform="rotate(-0.0140146 158.888 135.057)" fill="#7024C4"/>
<rect x="127.168" y="62" width="117.834" height="41.5884" rx="20.7942" fill="#7024C4"/>
<path d="M170.28 79.54L168.132 88H166.8L164.844 81.088L162.888 88H161.556L159.396 79.54H160.608L162.228 86.728L164.232 79.54H165.444L167.448 86.704L169.08 79.54H170.28ZM171.61 79.48C171.61 79.28 171.678 79.12 171.814 79C171.95 78.872 172.13 78.808 172.354 78.808C172.578 78.808 172.758 78.872 172.894 79C173.03 79.12 173.098 79.28 173.098 79.48C173.098 79.68 173.03 79.844 172.894 79.972C172.758 80.092 172.578 80.152 172.354 80.152C172.13 80.152 171.95 80.092 171.814 79.972C171.678 79.844 171.61 79.68 171.61 79.48ZM172.894 81.412V88H171.802V81.412H172.894ZM178.035 87.04V88H177.219C176.547 88 176.043 87.84 175.707 87.52C175.379 87.2 175.215 86.664 175.215 85.912V82.36H174.231V81.412H175.215V79.768H176.319V81.412H178.023V82.36H176.319V85.936C176.319 86.36 176.395 86.652 176.547 86.812C176.707 86.964 176.979 87.04 177.363 87.04H178.035ZM183.078 81.304C183.846 81.304 184.466 81.552 184.938 82.048C185.41 82.536 185.646 83.244 185.646 84.172V88H184.554V84.268C184.554 83.612 184.386 83.108 184.05 82.756C183.714 82.404 183.258 82.228 182.682 82.228C182.082 82.228 181.602 82.424 181.242 82.816C180.882 83.2 180.702 83.764 180.702 84.508V88H179.61V79.12H180.702V82.972C180.87 82.436 181.166 82.024 181.59 81.736C182.022 81.448 182.518 81.304 183.078 81.304ZM190.263 81.328C190.903 81.328 191.443 81.488 191.883 81.808C192.331 82.128 192.643 82.556 192.819 83.092V79.12H193.911V88H192.819V86.32C192.643 86.856 192.331 87.284 191.883 87.604C191.443 87.924 190.903 88.084 190.263 88.084C189.679 88.084 189.159 87.948 188.703 87.676C188.247 87.404 187.887 87.016 187.623 86.512C187.367 86 187.239 85.4 187.239 84.712C187.239 84.024 187.367 83.424 187.623 82.912C187.887 82.4 188.247 82.008 188.703 81.736C189.159 81.464 189.679 81.328 190.263 81.328ZM190.575 82.3C189.903 82.3 189.363 82.516 188.955 82.948C188.555 83.372 188.355 83.96 188.355 84.712C188.355 85.464 188.555 86.056 188.955 86.488C189.363 86.912 189.903 87.124 190.575 87.124C191.007 87.124 191.391 87.024 191.727 86.824C192.071 86.624 192.339 86.344 192.531 85.984C192.723 85.616 192.819 85.192 192.819 84.712C192.819 84.232 192.723 83.808 192.531 83.44C192.339 83.072 192.071 82.792 191.727 82.6C191.391 82.4 191.007 82.3 190.575 82.3ZM196.983 82.744C197.199 82.288 197.515 81.936 197.931 81.688C198.347 81.432 198.843 81.304 199.419 81.304V82.492H199.083C198.467 82.492 197.963 82.652 197.571 82.972C197.179 83.284 196.983 83.804 196.983 84.532V88H195.891V81.412H196.983V82.744ZM203.438 81.328C204.078 81.328 204.618 81.488 205.058 81.808C205.506 82.128 205.818 82.556 205.994 83.092V81.412H207.086V88H205.994V86.32C205.818 86.856 205.506 87.284 205.058 87.604C204.618 87.924 204.078 88.084 203.438 88.084C202.854 88.084 202.334 87.948 201.878 87.676C201.422 87.404 201.062 87.016 200.798 86.512C200.542 86 200.414 85.4 200.414 84.712C200.414 84.024 200.542 83.424 200.798 82.912C201.062 82.4 201.422 82.008 201.878 81.736C202.334 81.464 202.854 81.328 203.438 81.328ZM203.75 82.3C203.078 82.3 202.538 82.516 202.13 82.948C201.73 83.372 201.53 83.96 201.53 84.712C201.53 85.464 201.73 86.056 202.13 86.488C202.538 86.912 203.078 87.124 203.75 87.124C204.182 87.124 204.566 87.024 204.902 86.824C205.246 86.624 205.514 86.344 205.706 85.984C205.898 85.616 205.994 85.192 205.994 84.712C205.994 84.232 205.898 83.808 205.706 83.44C205.514 83.072 205.246 82.792 204.902 82.6C204.566 82.4 204.182 82.3 203.75 82.3ZM218.114 81.412L216.218 88H215.042L213.23 82.636L211.406 88H210.218L208.346 81.412H209.45L210.854 86.956L212.678 81.412H213.818L215.654 86.944L217.07 81.412H218.114Z" fill="white"/>
<defs>
<filter id="filter0_d" x="0.925781" y="70.5918" width="229.951" height="112.811" filterUnits="userSpaceOnUse" color-interpolation-filters="sRGB">
<feFlood flood-opacity="0" result="BackgroundImageFix"/>
<feColorMatrix in="SourceAlpha" type="matrix" values="0 0 0 0 0 0 0 0 0 0 0 0 0 0 0 0 0 0 127 0"/>
<feOffset dy="4"/>
<feGaussianBlur stdDeviation="12"/>
<feColorMatrix type="matrix" values="0 0 0 0 0 0 0 0 0 0 0 0 0 0 0 0 0 0 0.1 0"/>
<feBlend mode="normal" in2="BackgroundImageFix" result="effect1_dropShadow"/>
<feBlend mode="normal" in="SourceGraphic" in2="effect1_dropShadow" result="shape"/>
</filter>
<linearGradient id="paint0_linear" x1="128.556" y1="104.668" x2="159.186" y2="158.829" gradientUnits="userSpaceOnUse">
<stop stop-color="#7024C4"/>
<stop offset="1" stop-color="#C4C4C4" stop-opacity="0"/>
</linearGradient>
</defs>
</svg>
