<svg width="21" height="17" viewBox="0 0 21 17" fill="none" xmlns="http://www.w3.org/2000/svg">
<path d="M20.666 1.97763C20.1994 2.17898 19.7151 2.33783 19.2181 2.45284C19.7657 1.94639 20.1775 1.31292 20.4098 0.60586C20.4761 0.404006 20.2508 0.229458 20.0635 0.337535C19.3721 0.736658 18.6273 1.03608 17.8498 1.22756C17.8047 1.23868 17.7582 1.24431 17.7115 1.24431C17.5699 1.24431 17.4322 1.19313 17.3239 1.10025C16.4967 0.390752 15.4328 0 14.3283 0C13.8503 0 13.3678 0.0724999 12.894 0.215507C11.426 0.658628 10.2933 1.83711 9.93788 3.2911C9.80456 3.83646 9.76846 4.38233 9.83052 4.9135C9.83763 4.97454 9.80799 5.01714 9.78971 5.03712C9.75761 5.07215 9.71209 5.09223 9.66483 5.09223C9.65956 5.09223 9.65413 5.09198 9.64876 5.09148C6.43533 4.80094 3.53761 3.29428 1.48934 0.849121C1.3849 0.724401 1.1846 0.739698 1.10135 0.878669C0.700247 1.54836 0.488278 2.31432 0.488278 3.09373C0.488278 4.28821 0.981387 5.41387 1.83791 6.23449C1.47772 6.15138 1.1291 6.02048 0.805258 5.84543C0.648586 5.76073 0.455817 5.8696 0.453616 6.044C0.43119 7.81848 1.49871 9.39743 3.0979 10.1084C3.06569 10.1092 3.03349 10.1095 3.00123 10.1095C2.74774 10.1095 2.49108 10.0857 2.23845 10.0387C2.06202 10.0059 1.91379 10.1688 1.96858 10.3353C2.48764 11.9124 3.88295 13.0749 5.55269 13.3388C4.16691 14.2442 2.55313 14.7217 0.873508 14.7217L0.349884 14.7214C0.188552 14.7214 0.0521038 14.8238 0.0109901 14.9758C-0.0295092 15.1256 0.0450894 15.2836 0.182664 15.3615C2.07533 16.4335 4.23418 17 6.42678 17C8.34602 17 10.1413 16.6293 11.7628 15.8984C13.2493 15.2282 14.5629 14.2703 15.6671 13.0511C16.6957 11.9154 17.5 10.6044 18.0577 9.15452C18.5893 7.77244 18.8703 6.29772 18.8703 4.88978V4.82271C18.8703 4.59664 18.9753 4.38393 19.1586 4.23912C19.8542 3.68952 20.4599 3.04255 20.9588 2.31621C21.0906 2.12442 20.8828 1.88405 20.666 1.97763Z" fill="#54BEFF"/>
</svg>
