<svg width="171" height="132" viewBox="0 0 171 132" fill="none" xmlns="http://www.w3.org/2000/svg">
<g clip-path="url(#clip0_1087_1303)">
<path d="M0 109.742V7.8653C0.000482467 7.42202 0.176181 6.99704 0.488547 6.68359C0.800912 6.37015 1.22443 6.19384 1.66618 6.19336H94.7502C95.192 6.19384 95.6155 6.37015 95.9278 6.68359C96.2402 6.99704 96.4159 7.42202 96.4164 7.8653V109.742C96.4159 110.185 96.2402 110.61 95.9278 110.924C95.6155 111.237 95.192 111.413 94.7502 111.414H1.66618C1.22443 111.413 0.800912 111.237 0.488547 110.924C0.176181 110.61 0.000482467 110.185 0 109.742ZM1.66618 6.86213C1.40113 6.86242 1.14702 6.96821 0.959602 7.15627C0.772182 7.34434 0.666762 7.59933 0.666472 7.8653V109.742C0.666762 110.008 0.772182 110.263 0.959602 110.451C1.14702 110.639 1.40113 110.745 1.66618 110.745H94.7502C95.0153 110.745 95.2694 110.639 95.4568 110.451C95.6442 110.263 95.7496 110.008 95.7499 109.742V7.8653C95.7496 7.59933 95.6442 7.34434 95.4568 7.15627C95.2694 6.96821 95.0153 6.86242 94.7502 6.86213H1.66618Z" fill="#E6E6E6"/>
<path d="M64.7622 16.5588C65.1088 16.5645 65.4392 16.7067 65.6823 16.9546C65.9254 17.2026 66.0616 17.5365 66.0616 17.8843C66.0616 18.2321 65.9254 18.566 65.6823 18.814C65.4392 19.0619 65.1088 19.2041 64.7622 19.2098H31.6417C31.2913 19.2156 30.953 19.0815 30.7012 18.837C30.4494 18.5925 30.3048 18.2576 30.299 17.9061C30.2933 17.5545 30.4269 17.2151 30.6706 16.9624C30.9142 16.7097 31.2479 16.5646 31.5983 16.5588C31.6127 16.5585 31.6272 16.5585 31.6417 16.5588H64.7622Z" fill="#3F3D56"/>
<path d="M24.1303 16.1897C24.1544 16.2139 24.1736 16.2427 24.1867 16.2743C24.1997 16.3059 24.2064 16.3399 24.2064 16.3741C24.2064 16.4084 24.1997 16.4423 24.1867 16.4739C24.1736 16.5056 24.1544 16.5343 24.1303 16.5586L23.0144 17.6783H25.766C25.8002 17.6782 25.8341 17.6849 25.8657 17.6979C25.8974 17.711 25.9261 17.7302 25.9503 17.7544C25.9745 17.7787 25.9937 17.8074 26.0068 17.8391C26.0199 17.8708 26.0267 17.9048 26.0267 17.9391C26.0267 17.9734 26.0199 18.0074 26.0068 18.0391C25.9937 18.0708 25.9745 18.0996 25.9503 18.1238C25.9261 18.148 25.8974 18.1672 25.8657 18.1803C25.8341 18.1934 25.8002 18.2 25.766 18.1999H23.0144L24.1303 19.3197C24.1545 19.3439 24.1737 19.3726 24.1868 19.4043C24.1999 19.436 24.2066 19.4699 24.2066 19.5042C24.2067 19.5384 24.2 19.5724 24.1869 19.6041C24.1738 19.6357 24.1547 19.6645 24.1305 19.6888C24.1064 19.713 24.0777 19.7322 24.0461 19.7453C24.0146 19.7584 23.9807 19.7652 23.9466 19.7652C23.9124 19.7651 23.8786 19.7584 23.847 19.7452C23.8155 19.7321 23.7868 19.7128 23.7627 19.6885L22.2031 18.1236C22.1543 18.0746 22.127 18.0083 22.127 17.9391C22.127 17.8699 22.1543 17.8036 22.2031 17.7547L23.7627 16.1897C23.7868 16.1655 23.8155 16.1462 23.847 16.1331C23.8786 16.12 23.9124 16.1133 23.9465 16.1133C23.9806 16.1133 24.0144 16.12 24.046 16.1331C24.0775 16.1462 24.1062 16.1655 24.1303 16.1897Z" fill="#E6E6E6"/>
<path d="M72.287 16.1897C72.2629 16.2139 72.2437 16.2427 72.2307 16.2743C72.2176 16.3059 72.2109 16.3399 72.2109 16.3741C72.2109 16.4084 72.2176 16.4423 72.2307 16.4739C72.2437 16.5056 72.2629 16.5343 72.287 16.5586L73.4029 17.6783H70.6513C70.6171 17.6782 70.5832 17.6849 70.5516 17.6979C70.52 17.711 70.4912 17.7302 70.467 17.7544C70.4428 17.7787 70.4236 17.8074 70.4105 17.8391C70.3974 17.8708 70.3906 17.9048 70.3906 17.9391C70.3906 17.9734 70.3974 18.0074 70.4105 18.0391C70.4236 18.0708 70.4428 18.0996 70.467 18.1238C70.4912 18.148 70.52 18.1672 70.5516 18.1803C70.5832 18.1934 70.6171 18.2 70.6513 18.1999H73.4029L72.287 19.3197C72.2628 19.3439 72.2437 19.3726 72.2306 19.4043C72.2175 19.436 72.2107 19.4699 72.2107 19.5042C72.2107 19.5384 72.2174 19.5724 72.2304 19.6041C72.2435 19.6357 72.2627 19.6645 72.2868 19.6888C72.311 19.713 72.3396 19.7322 72.3712 19.7453C72.4028 19.7584 72.4366 19.7652 72.4708 19.7652C72.5049 19.7651 72.5387 19.7584 72.5703 19.7452C72.6018 19.7321 72.6305 19.7128 72.6546 19.6885L74.2142 18.1236C74.263 18.0746 74.2904 18.0083 74.2904 17.9391C74.2904 17.8699 74.263 17.8036 74.2142 17.7547L72.6546 16.1897C72.6305 16.1655 72.6018 16.1462 72.5703 16.1331C72.5388 16.12 72.505 16.1133 72.4708 16.1133C72.4367 16.1133 72.4029 16.12 72.3713 16.1331C72.3398 16.1462 72.3112 16.1655 72.287 16.1897Z" fill="#E6E6E6"/>
<path d="M29.8023 93.5449C28.5458 93.5449 27.3407 94.0458 26.4521 94.9374C25.5636 95.829 25.0645 97.0382 25.0645 98.2991C25.0645 99.56 25.5636 100.769 26.4521 101.661C27.3407 102.552 28.5458 103.053 29.8023 103.053H66.6118C67.8683 103.053 69.0734 102.552 69.962 101.661C70.8505 100.769 71.3496 99.56 71.3496 98.2991C71.3496 97.0382 70.8505 95.829 69.962 94.9374C69.0734 94.0458 67.8683 93.5449 66.6118 93.5449H29.8023Z" fill="#E6E6E6"/>
<path d="M87.2812 7.64019C87.2813 6.1291 87.7278 4.65195 88.5644 3.39553C89.4011 2.13911 90.5902 1.15984 91.9814 0.581577C93.3727 0.00330942 94.9036 -0.147991 96.3806 0.146808C97.8575 0.441606 99.2142 1.16926 100.279 2.23776C101.344 3.30626 102.069 4.66761 102.363 6.14966C102.657 7.63171 102.506 9.1679 101.929 10.564C101.353 11.96 100.377 13.1533 99.1252 13.9928C97.8731 14.8323 96.401 15.2804 94.8952 15.2804C92.8765 15.2781 90.9412 14.4724 89.5138 13.0401C88.0864 11.6078 87.2835 9.66579 87.2812 7.64019Z" fill="#2BA8F5"/>
<path d="M91.8915 6.88695H94.1446V4.62599C94.1445 4.52691 94.1638 4.42877 94.2015 4.33719C94.2391 4.24561 94.2944 4.16238 94.3642 4.09227C94.4339 4.02216 94.5168 3.96653 94.608 3.92858C94.6992 3.89063 94.797 3.87109 94.8957 3.87109C94.9944 3.87109 95.0922 3.89063 95.1834 3.92858C95.2746 3.96653 95.3575 4.02216 95.4272 4.09227C95.497 4.16238 95.5523 4.24561 95.59 4.33719C95.6276 4.42877 95.6469 4.52691 95.6468 4.62599V6.88695H97.9C98.0989 6.88741 98.2894 6.96702 98.4299 7.1083C98.5704 7.24959 98.6493 7.44102 98.6493 7.64061C98.6493 7.84019 98.5704 8.03162 98.4299 8.17291C98.2894 8.3142 98.0989 8.3938 97.9 8.39426H95.6468V10.6552C95.6464 10.8549 95.5672 11.0463 95.4264 11.1874C95.2855 11.3284 95.0947 11.4077 94.8957 11.4077C94.6967 11.4077 94.5059 11.3284 94.365 11.1874C94.2242 11.0463 94.1449 10.8549 94.1446 10.6552V8.39427H91.8915C91.7927 8.3945 91.6948 8.37517 91.6035 8.3374C91.5122 8.29963 91.4292 8.24415 91.3593 8.17414C91.2893 8.10414 91.2339 8.02098 91.196 7.92943C91.1582 7.83788 91.1387 7.73973 91.1387 7.64062C91.1387 7.5415 91.1582 7.44336 91.196 7.35181C91.2339 7.26026 91.2893 7.1771 91.3593 7.10709C91.4292 7.03708 91.5122 6.98161 91.6035 6.94383C91.6948 6.90606 91.7927 6.88674 91.8915 6.88697V6.88695Z" fill="white"/>
<path d="M79.6401 32.4499L25.2988 77.1328L25.5804 77.4776L79.9217 32.7947L79.6401 32.4499Z" fill="#E6E6E6"/>
<path d="M25.5892 32.4431L25.3066 32.7871L79.6339 77.7101L79.9164 77.3661L25.5892 32.4431Z" fill="#E6E6E6"/>
<path d="M24.5488 76.415V33.3905C24.5493 32.9768 24.7133 32.5802 25.0048 32.2877C25.2964 31.9951 25.6916 31.8306 26.1039 31.8301H78.9774C79.3897 31.8305 79.785 31.9951 80.0766 32.2876C80.3681 32.5802 80.5321 32.9768 80.5325 33.3905V76.415C80.5321 76.8287 80.3681 77.2254 80.0765 77.5179C79.785 77.8105 79.3897 77.975 78.9774 77.9755H26.1039C25.6916 77.975 25.2964 77.8104 25.0049 77.5179C24.7133 77.2254 24.5493 76.8287 24.5488 76.415ZM26.1039 32.2759C25.8094 32.2763 25.5271 32.3938 25.3189 32.6028C25.1106 32.8117 24.9935 33.095 24.9931 33.3905V76.415C24.9935 76.7105 25.1106 76.9938 25.3189 77.2028C25.5271 77.4118 25.8094 77.5293 26.1039 77.5296H78.9774C79.2719 77.5293 79.5543 77.4118 79.7625 77.2028C79.9707 76.9938 80.0879 76.7105 80.0882 76.415V33.3905C80.0879 33.095 79.9707 32.8117 79.7625 32.6028C79.5543 32.3938 79.2719 32.2763 78.9774 32.2759L26.1039 32.2759Z" fill="#3F3D56"/>
<path d="M15.8848 84.2158V41.1913C15.8852 40.7776 16.0492 40.381 16.3408 40.0884C16.6323 39.7959 17.0276 39.6313 17.4399 39.6309H70.3134C70.7257 39.6313 71.1209 39.7959 71.4125 40.0884C71.704 40.381 71.868 40.7776 71.8685 41.1913V84.2158C71.868 84.6295 71.704 85.0262 71.4124 85.3187C71.1209 85.6112 70.7257 85.7758 70.3134 85.7763H17.4399C17.0276 85.7758 16.6323 85.6112 16.3408 85.3187C16.0493 85.0262 15.8853 84.6295 15.8848 84.2158Z" fill="#2BA8F5"/>
<path d="M37.8438 75.1885H64.8371C64.8709 75.1889 64.9047 75.1862 64.938 75.1804L52.1714 52.9905C52.0934 52.8523 51.9804 52.7373 51.8437 52.6573C51.707 52.5773 51.5516 52.5352 51.3934 52.5352C51.2351 52.5352 51.0797 52.5773 50.943 52.6573C50.8064 52.7373 50.6933 52.8523 50.6154 52.9905L42.0474 67.8817L41.6369 68.5942L37.8438 75.1885Z" fill="white"/>
<path opacity="0.2" d="M37.8438 75.1876H47.0598L42.5356 68.5935L42.21 68.1184L42.0472 67.8809L41.6367 68.5935L37.8438 75.1876Z" fill="black"/>
<path d="M22.8145 75.1877H46.1615L41.6373 68.5935L41.3117 68.1184L35.4163 59.5248C35.0298 58.9616 34.1 58.9265 33.6455 59.4186C33.615 59.4522 33.5867 59.4877 33.5606 59.5248L22.8145 75.1877Z" fill="white"/>
<path d="M40.409 58.246C42.6175 58.246 44.4078 56.4495 44.4078 54.2334C44.4078 52.0172 42.6175 50.2207 40.409 50.2207C38.2005 50.2207 36.4102 52.0172 36.4102 54.2334C36.4102 56.4495 38.2005 58.246 40.409 58.246Z" fill="white"/>
<path d="M64.093 47.6562H68.9805V42.7519H64.093V47.6562Z" fill="#3F3D56"/>
</g>
<defs>
<clipPath id="clip0_1087_1303">
<rect width="171" height="132" fill="white"/>
</clipPath>
</defs>
</svg>
